<svg style="left: 0px; top: 0px; width: 32px; height: 30px; display: block; position: relative; overflow: hidden; pointer-events: none;">
 <g style="pointer-events: none;">
  <g style="pointer-events: none;"></g>
  <g style="pointer-events: none;">
   <g transform="translate(0.5,0.5)" style="visibility: visible; pointer-events: none;">
    <path d="M 2.35 1.35 L 29.65 1.35 L 29.65 28.65 L 2.35 28.65 Z" fill="#c925d1" stroke="none" style="fill: light-dark(rgb(201, 37, 209), rgb(255, 124, 255)); pointer-events: none;"></path><path d="M 14.52 4.1 C 14.47 4.1 14.43 4.12 14.39 4.14 L 5.3 9.4 C 5.18 9.47 5.1 9.6 5.1 9.74 L 5.1 20.24 C 5.1 20.38 5.18 20.51 5.3 20.58 L 14.39 25.85 C 14.51 25.92 14.66 25.92 14.79 25.85 L 16.65 24.75 L 16.25 24.07 L 14.59 25.05 L 5.89 20.01 L 5.89 9.96 L 14.59 4.94 L 23.31 9.98 L 23.31 10.72 L 24.09 10.72 L 24.09 9.75 C 24.09 9.61 24.02 9.48 23.9 9.41 L 14.78 4.14 C 14.7 4.1 14.61 4.08 14.52 4.1 Z M 12.35 11.87 C 10.21 11.87 8.59 13.81 8.59 15.66 C 8.59 18.15 10.63 19.67 12.45 19.67 L 14.3 19.67 L 16.9 22.27 C 17.01 22.39 17.18 22.42 17.33 22.36 C 17.48 22.3 17.57 22.15 17.57 21.99 L 17.56 19.67 L 20.27 19.67 C 20.33 20.45 20.75 21.13 21.38 21.53 C 20.71 21.79 20.14 22.23 19.72 22.75 C 19.04 23.57 18.68 24.6 18.73 25.51 C 18.74 25.72 18.91 25.88 19.12 25.88 L 26.31 25.88 C 26.42 25.88 26.53 25.83 26.61 25.74 C 26.68 25.66 26.72 25.55 26.7 25.43 C 26.53 24.19 26.07 23.16 25.37 22.43 C 24.97 22.02 24.51 21.72 23.98 21.52 C 24.65 21.09 25.09 20.35 25.09 19.5 C 25.09 19.37 25.08 19.24 25.05 19.11 C 25.44 18.81 25.86 18.47 26.2 18 C 26.61 17.44 26.9 16.71 26.9 15.73 C 26.9 13.68 25.21 11.87 22.93 11.87 Z M 12.35 12.65 L 22.93 12.65 C 24.79 12.65 26.11 14.1 26.11 15.73 C 26.11 16.56 25.89 17.1 25.57 17.54 C 25.35 17.84 25.07 18.09 24.78 18.32 C 24.36 17.59 23.57 17.09 22.68 17.09 C 21.56 17.09 20.62 17.85 20.35 18.88 L 17.17 18.88 C 17.07 18.88 16.97 18.92 16.89 19 C 16.82 19.07 16.78 19.17 16.78 19.28 L 16.78 21.04 L 14.74 19 C 14.67 18.92 14.57 18.88 14.46 18.88 L 12.45 18.88 C 11.06 18.88 9.38 17.73 9.38 15.66 C 9.38 14.29 10.71 12.65 12.35 12.65 Z M 20.3 15.38 L 12.5 15.38 L 12.5 16.17 L 20.3 16.16 Z M 22.68 17.88 C 23.58 17.88 24.3 18.6 24.3 19.5 C 24.3 20.4 23.58 21.13 22.68 21.13 C 21.77 21.13 21.05 20.4 21.05 19.5 C 21.05 18.6 21.77 17.88 22.68 17.88 Z M 22.66 22.08 C 23.52 22.08 24.24 22.39 24.8 22.98 C 25.28 23.48 25.64 24.2 25.83 25.09 L 19.57 25.09 C 19.64 24.49 19.86 23.81 20.33 23.25 C 20.88 22.57 21.67 22.08 22.66 22.08 Z" fill="#ffffff" stroke="none" style="fill: light-dark(rgb(255, 255, 255), rgb(18, 18, 18)); pointer-events: none;"></path>
   </g>
  </g>
  <g style="pointer-events: none;"></g><g style="pointer-events: none;"></g>
 </g>
</svg>