<svg xmlns="http://www.w3.org/2000/svg" width="18" height="17" viewBox="0 0 18 17"><defs id="defs62801"><linearGradient id="f1b81213-b7d5-465b-a5f3-d99014b0e364" x1="9" y1="13.14" x2="9" y2="0.38999999" gradientUnits="userSpaceOnUse" gradientTransform="translate(-0.00932469,0.38764154)"><stop offset="0" id="stop62796" /><stop offset="0.82" id="stop62798" /></linearGradient></defs><title id="title62803">Icon-storage-94</title><g id="g62809" transform="translate(0.00932469,-0.38764154)"><path d="M 18,9.15 A 4.05,4.05 0 0 0 14.49,5.26 5.1,5.1 0 0 0 9.24,0.39 5.23,5.23 0 0 0 4.24,3.79 4.84,4.84 0 0 0 0,8.44 a 4.89,4.89 0 0 0 5.07,4.7 3.17,3.17 0 0 0 0.44,0 h 8.21 a 0.78,0.78 0 0 0 0.22,0 A 4.09,4.09 0 0 0 18,9.15 Z" id="path62805" style="fill:url(#f1b81213-b7d5-465b-a5f3-d99014b0e364)" /><path d="M 9.47,8.32 A 4.74,4.74 0 1 0 4.74,13.14 H 9.47 Z" id="path62807" style="fill:#50e6ff" /></g><path d="m 11.809325,14.952358 -2.2500003,2.24 a 0.1,0.1 0 0 1 -0.16,0 l -2.24,-2.24 a 0.12,0.12 0 0 1 0.08,-0.2 h 1.32 a 0.11,0.11 0 0 0 0.11,-0.14 v -2.9 a 0.11,0.11 0 0 1 0.12,-0.1 h 1.3900003 a 0.11,0.11 0 0 1 0.11,0.11 v 2.89 a 0.11,0.11 0 0 0 0.12,0.11 h 1.32 a 0.12175796,0.12175796 0 0 1 0.08,0.23 z" id="path62811" style="fill:#0078d4" /><path d="m 7.1593247,9.4323585 2.32,-2.32 2.3300003,2.32 a 0.11,0.11 0 0 1 -0.08,0.19 h -1.32 a 0.12,0.12 0 0 0 -0.12,0.12 V 12.742358 H 8.6693247 V 9.7423585 a 0.12,0.12 0 0 0 -0.11,-0.13 h -1.32 a 0.11,0.11 0 0 1 -0.08,-0.18 z" id="path62813" style="fill:#ffffff" /><metadata id="metadata62815"></metadata></svg>