<svg xmlns="http://www.w3.org/2000/svg" width="32" height="30" viewBox="0 0 32 30"><g transform="translate(0.5,0.5)" style="visibility: visible; pointer-events: none;"><rect x="1.18" y="9.49" width="29.64" height="11.02" fill="none" stroke="white" visibility="hidden" style="pointer-events: none;"></rect><rect x="1.18" y="9.49" width="29.64" height="11.02" fill="none" stroke="none" style="pointer-events: none;"></rect><path d="M 19.5 19.17 L 19.5 10.83 L 22.18 10.83 C 24.48 10.83 26.35 12.7 26.35 15 C 26.35 17.3 24.48 19.17 22.18 19.17 Z M 30.74 14.33 L 27.64 14.33 C 27.31 11.61 24.99 9.49 22.18 9.49 L 18.83 9.49 C 18.46 9.49 18.16 9.79 18.16 10.16 L 18.16 19.84 C 18.16 20.21 18.46 20.51 18.83 20.51 L 22.18 20.51 C 24.99 20.51 27.31 18.39 27.64 15.67 L 30.74 15.67 Z M 12.5 19.17 L 9.82 19.17 C 7.53 19.17 5.65 17.3 5.65 15 C 5.65 12.7 7.53 10.83 9.82 10.83 L 12.5 10.83 Z M 13.84 10.16 C 13.84 9.79 13.54 9.49 13.17 9.49 L 9.82 9.49 C 7.01 9.49 4.69 11.61 4.36 14.33 L 1.26 14.33 L 1.26 15.67 L 4.36 15.67 C 4.69 18.39 7.01 20.51 9.82 20.51 L 13.17 20.51 C 13.54 20.51 13.84 20.21 13.84 19.84 L 13.84 17.27 L 16.57 17.27 L 16.57 15.93 L 13.84 15.93 L 13.84 14.07 L 16.57 14.07 L 16.57 12.73 L 13.84 12.73 Z" fill="#7aa116" stroke="none" style="fill: light-dark(rgb(122, 161, 22), rgb(97, 130, 11)); pointer-events: none;"></path></g></svg>