<svg xmlns="http://www.w3.org/2000/svg" width="17" height="14" viewBox="0 0 17 14"><defs id="defs47192"><linearGradient id="aa32ebca-eeba-4b3a-9ee4-7e15a794a5d5" x1="9" y1="15.799" x2="9" y2="5.316" gradientUnits="userSpaceOnUse" gradientTransform="translate(0.544,2.2)"><stop offset="0" id="stop47187" /><stop offset="0.775" id="stop47189" /></linearGradient></defs><title id="title47194">MsPortalFx.base.images-2</title><g id="g47208"><path d="m 0.544,5.316 h 16.912 v 9.918 a 0.565,0.565 0 0 1 -0.565,0.565 H 1.109 A 0.565,0.565 0 0 1 0.544,15.234 Z" id="path47196" style="fill:url(#aa32ebca-eeba-4b3a-9ee4-7e15a794a5d5)" /><path d="m 1.112,2.2 h 15.776 a 0.565,0.565 0 0 1 0.565,0.565 v 2.55 H 0.547 V 2.766 A 0.565,0.565 0 0 1 1.112,2.2 Z" id="path47198" style="fill:#0078d4" /><path d="M 13.528,7.347 H 9.384 A 0.228,0.228 0 0 1 9.26,7.31 L 8.077,6.523 A 0.218,0.218 0 0 0 7.954,6.485 H 4.472 A 0.222,0.222 0 0 0 4.25,6.707 v 7.315 a 0.221,0.221 0 0 0 0.222,0.222 h 9.056 A 0.221,0.221 0 0 0 13.75,14.022 V 7.569 A 0.222,0.222 0 0 0 13.528,7.347 Z" id="path47200" style="fill:#f78d1e" /><rect x="5.1139998" y="6.9099998" width="2.1589999" height="0.43200001" rx="0.090999998" id="rect47202" style="fill:#ffffff" /><rect x="5.1139998" y="6.9099998" width="0.43200001" height="0.43200001" rx="0.061999999" id="rect47204" style="fill:#d15900" /><path d="M 13.528,7.337 H 8.977 A 0.219,0.219 0 0 0 8.82,7.4 L 8.088,8.131 A 0.22,0.22 0 0 1 7.931,8.197 H 4.472 A 0.221,0.221 0 0 0 4.25,8.418 v 5.591 a 0.221,0.221 0 0 0 0.222,0.222 h 9.056 A 0.221,0.221 0 0 0 13.75,14.009 V 7.558 A 0.221,0.221 0 0 0 13.528,7.337 Z" id="path47206" style="fill:#ffffff" /></g><metadata id="metadata47211"></metadata></svg>