<svg xmlns="http://www.w3.org/2000/svg" width="32" height="30" viewBox="0 0 32 30"><g transform="translate(0.5,0.5)" style="visibility: visible; pointer-events: none;"><path d="M 2.35 1.35 L 29.65 1.35 L 29.65 28.65 L 2.35 28.65 Z" fill="#01a88d" stroke="none" style="fill: light-dark(rgb(1, 168, 141), rgb(14, 157, 134)); pointer-events: none;"></path><path d="M 14.54 20.44 C 14.13 19.91 13.1 19.6 12 19.54 L 12 17.62 L 13.32 17.19 C 13.33 17.18 13.35 17.18 13.37 17.17 C 13.52 17.09 13.71 17.12 13.84 17.23 C 14.66 17.98 16.12 19.18 17.3 19.41 C 16.66 19.81 15.4 20.36 14.54 20.44 Z M 11.61 21.63 C 10.08 21.63 9.27 21.14 9.27 20.97 C 9.27 20.8 10.08 20.31 11.61 20.31 C 13.15 20.31 13.95 20.8 13.95 20.97 C 13.95 21.14 13.15 21.63 11.61 21.63 Z M 13.17 23 C 13.17 23.2 12.58 23.58 11.61 23.58 C 10.64 23.58 10.05 23.2 10.05 23 C 10.05 22.79 10.64 22.41 11.61 22.41 C 12.58 22.41 13.17 22.79 13.17 23 Z M 9.84 17.23 C 9.97 17.11 10.15 17.09 10.32 17.17 L 11.22 17.59 L 11.22 19.54 C 10.13 19.6 9.09 19.91 8.68 20.44 C 7.85 20.36 6.75 19.81 6.23 19.43 C 7.37 19.29 8.8 18.18 9.84 17.23 Z M 10.44 14.22 C 10.44 13.57 10.97 13.05 11.61 13.05 C 12.26 13.05 12.78 13.57 12.78 14.22 C 12.78 14.87 12.26 15.39 11.61 15.39 C 10.97 15.39 10.44 14.87 10.44 14.22 Z M 18.13 18.74 C 18.01 18.69 17.87 18.67 17.69 18.67 C 16.99 18.67 15.75 17.92 14.36 16.66 C 14 16.33 13.49 16.25 13.05 16.46 L 12 16.8 L 12 16.13 C 12.89 15.95 13.56 15.16 13.56 14.22 C 13.56 13.14 12.69 12.27 11.61 12.27 C 10.54 12.27 9.66 13.14 9.66 14.22 C 9.66 15.16 10.33 15.95 11.22 16.13 L 11.22 16.73 L 10.66 16.47 C 10.21 16.25 9.68 16.32 9.31 16.66 C 7.93 17.92 6.68 18.67 5.99 18.67 C 5.78 18.67 5.63 18.7 5.51 18.75 C 5.3 18.85 5.18 19.03 5.18 19.24 C 5.18 20.02 7.28 21.03 8.53 21.21 C 8.66 21.63 9.13 21.95 9.75 22.15 C 9.45 22.38 9.27 22.67 9.27 23 C 9.27 23.7 10.09 24.24 11.22 24.34 L 11.22 25.92 L 12 25.92 L 12 24.34 C 13.14 24.24 13.95 23.7 13.95 23 C 13.95 22.67 13.77 22.38 13.47 22.15 C 14.09 21.95 14.56 21.63 14.69 21.21 C 15.97 21.03 18.46 20.01 18.46 19.21 C 18.46 19 18.33 18.82 18.13 18.74 Z M 17.07 14.22 L 19.8 14.22 L 19.8 13.44 L 17.07 13.44 Z M 17.07 9.15 L 20.58 9.15 L 20.58 8.37 L 17.07 8.37 Z M 17.07 11.88 L 24.48 11.88 L 24.48 11.1 L 17.07 11.1 Z M 19.41 16.56 L 24.48 16.56 L 24.48 15.78 L 19.41 15.78 Z M 20.97 14.22 L 24.48 14.22 L 24.48 13.44 L 20.97 13.44 Z M 22.92 5.48 L 25.55 8.37 L 22.92 8.37 Z M 26.72 8.5 L 22.82 4.21 C 22.75 4.13 22.64 4.08 22.53 4.08 L 14.73 4.08 C 14.52 4.08 14.34 4.25 14.34 4.47 L 14.34 14.61 L 15.12 14.61 L 15.12 4.86 L 22.14 4.86 L 22.14 8.76 C 22.14 8.98 22.32 9.15 22.53 9.15 L 26.04 9.15 L 26.04 20.07 L 20.19 20.07 L 20.19 20.85 L 26.43 20.85 C 26.65 20.85 26.82 20.68 26.82 20.46 L 26.82 8.76 C 26.82 8.66 26.79 8.57 26.72 8.5 Z" fill="#ffffff" stroke="none" style="fill: light-dark(rgb(255, 255, 255), rgb(18, 18, 18)); pointer-events: none;"></path></g></svg>